<svg xmlns="http://www.w3.org/2000/svg" width="30.172" height="40.64" viewBox="0 0 30.172 40.64">
  <g id="clipboard" transform="translate(2 2)">
    <path id="Path_18" data-name="Path 18" d="M30.32,10h6.543a1.309,1.309,0,0,1,1.309,1.309v30.1a1.309,1.309,0,0,1-1.309,1.309H13.309A1.309,1.309,0,0,1,12,41.406v-30.1A1.309,1.309,0,0,1,13.309,10h6.543" transform="translate(-12 -6.074)" fill="none" stroke="#727272" stroke-linejoin="round" stroke-width="4"/>
    <line id="Line_2" data-name="Line 2" x2="13" transform="translate(9.191 13.589)" fill="none" stroke="#727272" stroke-linejoin="round" stroke-width="4"/>
    <line id="Line_3" data-name="Line 3" x2="13" transform="translate(9.191 21.589)" fill="none" stroke="#727272" stroke-linejoin="round" stroke-width="4"/>
    <line id="Line_4" data-name="Line 4" x2="13" transform="translate(9.191 28.589)" fill="none" stroke="#727272" stroke-linejoin="round" stroke-width="4"/>
    <line id="Line_5" data-name="Line 5" x2="2" transform="translate(4.191 13.589)" fill="none" stroke="#727272" stroke-linejoin="round" stroke-width="4"/>
    <line id="Line_6" data-name="Line 6" x2="2" transform="translate(4.191 21.589)" fill="none" stroke="#727272" stroke-linejoin="round" stroke-width="4"/>
    <line id="Line_7" data-name="Line 7" x2="2" transform="translate(4.191 28.589)" fill="none" stroke="#727272" stroke-linejoin="round" stroke-width="4"/>
    <path id="Path_19" data-name="Path 19" d="M34.469,5.309v5.234H24V5.309h2.97a2.613,2.613,0,0,1,4.528,0Z" transform="translate(-16.149 -4)" fill="none" stroke="#727272" stroke-linejoin="round" stroke-width="4"/>
  </g>
</svg>
