<svg xmlns="http://www.w3.org/2000/svg" width="53.215" height="47.98" viewBox="0 0 53.215 47.98">
  <g id="Lag_2" data-name="Lag 2" transform="translate(0.005 0.003)">
    <g id="Icons" transform="translate(-0.005 -0.003)">
      <g id="_6" data-name="6">
        <path id="Path_20" data-name="Path 20" d="M36,26l-3,7.26a1.2,1.2,0,0,1-1.09.73h-.06a1.18,1.18,0,0,1-1.07-.82l-2.52-8-.52.95a1.21,1.21,0,0,1-1,.61H22.82a1.18,1.18,0,0,1-1.14-.89l-2-7.77L17.33,28.74a1.18,1.18,0,0,1-1.16.93,1.22,1.22,0,0,1-.92-.45l-2.14-2.58h-9a.41.41,0,0,0-.36.62l.36.6a45.54,45.54,0,0,0,9,10.36,66,66,0,0,0,13.07,8.85.8.8,0,0,0,.36.09A.82.82,0,0,0,27,47a89.609,89.609,0,0,0,13-9.9,53.75,53.75,0,0,0,9-10.47h0a.41.41,0,0,0-.34-.63Z" transform="translate(0.005 0.82)" fill="#fff"/>
        <path id="Path_21" data-name="Path 21" d="M13.66,24.28a1.17,1.17,0,0,1,.91.43l1,1.17,2.92-13.14a1.18,1.18,0,0,1,2.3,0l3,11.68H26l1.53-2.75a1.17,1.17,0,0,1,2.15.22L32,29.41l2.1-5a1.17,1.17,0,0,1,1.09-.72H50.48a.41.41,0,0,0,.37-.23,21.51,21.51,0,0,0,2.36-9.4A14.06,14.06,0,0,0,26.6,7.72,14,14,0,0,0,14,0,14.19,14.19,0,0,0,0,14.55,25.1,25.1,0,0,0,2.15,24a.42.42,0,0,0,.38.24Z" transform="translate(0.005 0.003)" fill="#fff"/>
      </g>
    </g>
  </g>
</svg>
