<?xml version="1.0" encoding="utf-8"?>
<!-- Generator: Adobe Illustrator 21.0.0, SVG Export Plug-In . SVG Version: 6.00 Build 0)  -->
<svg version="1.1" id="duotone" xmlns="http://www.w3.org/2000/svg" xmlns:xlink="http://www.w3.org/1999/xlink" x="0px" y="0px"
	 viewBox="0 0 32 32" fill="white" width="53.215" height="47.98" enable-background="new 0 0 32 32" xml:space="preserve">
<path opacity="0.5" d="M26.641,25.014C26.864,24.554,27,24.045,27,23.5c0-0.539-0.133-1.044-0.351-1.5H27.5c1.93,0,3.5-1.57,3.5-3.5
	c0-1.561-1.034-2.871-2.448-3.321C28.828,14.678,29,14.112,29,13.5c0-1.93-1.57-3.5-3.5-3.5h-19C4.57,10,3,11.57,3,13.5
	c0,1.561,1.034,2.871,2.448,3.321C5.172,17.322,5,17.888,5,18.5c0,0.539,0.133,1.044,0.351,1.5H4.5C2.57,20,1,21.57,1,23.5
	c0,1.881,1.496,3.41,3.359,3.486C4.136,27.446,4,27.955,4,28.5C4,30.43,5.57,32,7.5,32h19c1.93,0,3.5-1.57,3.5-3.5
	C30,26.619,28.504,25.09,26.641,25.014z M5,13.5C5,12.673,5.673,12,6.5,12h19c0.827,0,1.5,0.673,1.5,1.5S26.327,15,25.5,15h-17h-2
	C5.673,15,5,14.327,5,13.5z M3,23.5C3,22.673,3.673,22,4.5,22h4h15c0.827,0,1.5,0.673,1.5,1.5S24.327,25,23.5,25h-16h-3
	C3.673,25,3,24.327,3,23.5z"/>
<g>
	<path d="M31,32H1c-0.553,0-1-0.447-1-1s0.447-1,1-1h30c0.553,0,1,0.447,1,1S31.553,32,31,32z"/>
</g>
<path d="M23,6h-3.556c0.532-0.913,0.748-2.033,0.354-3.242c-0.438-1.345-1.594-2.402-2.982-2.677C14.254-0.428,12,1.527,12,4
	c0,0.732,0.212,1.409,0.556,2H9C7.343,6,6,7.343,6,9l0,0c0,0.552,0.448,1,1,1h4c0.552,0,1,0.448,1,1l0,3.882
	c0,1.451,0.978,2.784,2.402,3.06C16.317,18.314,18,16.85,18,15v-4c0-0.552,0.448-1,1-1h6c0.552,0,1-0.448,1-1l0,0
	C26,7.343,24.657,6,23,6z"/>
</svg>
