<svg xmlns="http://www.w3.org/2000/svg" width="42.98" height="36.02" viewBox="0 0 42.98 36.02">
  <g id="yoga" transform="translate(2 2)">
    <path id="Path_9" data-name="Path 9" d="M39.68,20.552A20.7,20.7,0,0,1,45.638,16.8,20.829,20.829,0,0,1,47.2,25.752" transform="translate(-14.844 -12.067)" fill="none" stroke="#727272" stroke-linejoin="round" stroke-width="4"/>
    <line id="Line_1" data-name="Line 1" y1="0.007" transform="translate(21.077 24.307)" fill="none" stroke="#727272" stroke-linejoin="round" stroke-width="4"/>
    <path id="Path_10" data-name="Path 10" d="M13.5,25.752A20.829,20.829,0,0,1,15.066,16.8a20.7,20.7,0,0,1,5.958,3.752" transform="translate(-6.88 -12.067)" fill="none" stroke="#727272" stroke-linejoin="round" stroke-width="4"/>
    <path id="Path_11" data-name="Path 11" d="M35.686,27.423A22.573,22.573,0,0,0,29.108,10,22.573,22.573,0,0,0,22.53,27.423" transform="translate(-9.617 -10)" fill="none" stroke="#727272" stroke-linejoin="round" stroke-width="4"/>
    <path id="Path_12" data-name="Path 12" d="M35.686,27.423A22.573,22.573,0,0,0,29.108,10,22.573,22.573,0,0,0,22.53,27.423" transform="translate(-9.617 -10)" fill="none" stroke="#727272" stroke-linejoin="round" stroke-width="4"/>
    <path id="Path_13" data-name="Path 13" d="M51.492,28A19.493,19.493,0,0,1,32.005,47.49,19.493,19.493,0,0,1,51.488,28Z" transform="translate(-12.511 -15.471)" fill="none" stroke="#727272" stroke-linejoin="round" stroke-width="4"/>
    <path id="Path_14" data-name="Path 14" d="M51.492,28A19.493,19.493,0,0,1,32.005,47.49,19.493,19.493,0,0,1,51.488,28Z" transform="translate(-12.511 -15.471)" fill="none" stroke="#727272" stroke-linejoin="round" stroke-width="4"/>
    <path id="Path_15" data-name="Path 15" d="M51.492,28A19.493,19.493,0,0,1,32.005,47.49,19.493,19.493,0,0,1,51.488,28Z" transform="translate(-12.511 -15.471)" fill="none" stroke="#727272" stroke-linejoin="round" stroke-width="4"/>
    <path id="Path_16" data-name="Path 16" d="M4,28A19.493,19.493,0,0,0,23.487,47.49,19.493,19.493,0,0,0,4,28Z" transform="translate(-4 -15.471)" fill="none" stroke="#727272" stroke-linejoin="round" stroke-width="4"/>
    <path id="Path_17" data-name="Path 17" d="M4,28A19.493,19.493,0,0,0,23.487,47.49,19.493,19.493,0,0,0,4,28Z" transform="translate(-4 -15.471)" fill="none" stroke="#727272" stroke-linejoin="round" stroke-width="4"/>
  </g>
</svg>
